<svg width="50" height="50" viewBox="0 0 40 40" fill="none" xmlns="http://www.w3.org/2000/svg"><path d="M15 17.5C15 16.8097 15.5597 16.25 16.25 16.25H23.75C24.4403 16.25 25 16.8097 25 17.5C25 18.1904 24.4403 18.75 23.75 18.75H16.25C15.5597 18.75 15 18.1904 15 17.5Z" fill="white"></path><path d="M16.25 21.25C15.5597 21.25 15 21.8097 15 22.5C15 23.1904 15.5597 23.75 16.25 23.75H21.25C21.9404 23.75 22.5 23.1904 22.5 22.5C22.5 21.8097 21.9404 21.25 21.25 21.25H16.25Z" fill="white"></path><path d="M5.00003 20C5.00003 11.7157 11.7158 5 20 5C28.2842 5 35 11.7157 35 20C35 28.2843 28.2842 35 20 35C17.266 35 14.6997 34.2675 12.4904 32.9875L6.64532 34.9358C6.20543 35.0825 5.7205 34.9735 5.38555 34.653C5.05063 34.3323 4.92075 33.8525 5.04812 33.4065L6.82715 27.18C5.662 25.0465 5.00003 22.5989 5.00003 20ZM20 7.5C13.0965 7.5 7.50003 13.0964 7.50003 20C7.50003 22.3327 8.13783 24.5126 9.24783 26.3792C9.4238 26.675 9.46992 27.0305 9.37535 27.3615L8.10297 31.8147L12.2485 30.433C12.605 30.314 12.9961 30.362 13.3134 30.5632C15.2463 31.7897 17.5383 32.5 20 32.5C26.9035 32.5 32.5 26.9035 32.5 20C32.5 13.0964 26.9035 7.5 20 7.5Z" fill="white"></path></svg>